<?xml version="1.0" encoding="utf-8"?>
<!-- Svg Vector Icons : http://www.onlinewebfonts.com/icon -->
<!DOCTYPE svg PUBLIC "-//W3C//DTD SVG 1.1//EN" "http://www.w3.org/Graphics/SVG/1.1/DTD/svg11.dtd">
<svg version="1.1" xmlns="http://www.w3.org/2000/svg" xmlns:xlink="http://www.w3.org/1999/xlink" x="0px" y="0px" viewBox="0 0 1000 1000" enable-background="new 0 0 1000 1000" xml:space="preserve">
<metadata> Svg Vector Icons : http://www.onlinewebfonts.com/icon </metadata>
<g><g transform="translate(0.000000,511.000000) scale(0.100000,-0.100000)"><path d="M1017.7,4950l-66-58l-6-361.9l-6-359.9l-359.9-6l-361.9-6l-58-66c-68-76-78-186-26-261.9c60-84,142-102,487.9-102h319.9V2670.7V1611.1l-361.9-6l-361.9-6l-58-66c-80-90-80-197.9,0-287.9l58-66l361.9-6l361.9-8V109.5V-948.2l-361.9-6l-361.9-6l-58-66c-68-76-78-185.9-26-261.9c60-84,142-102,487.9-102h319.9v-1057.7v-1059.7l-361.9-6l-361.9-6l-58-66c-100-112-72-265.9,62-333.9c44-24,134-30,387.9-30h329.9l6-361.9l6-361.9l66-58c76-68,185.9-78,261.9-26c84,60,102,142,102,487.9v319.9h1057.7h1059.7l6-361.9l6-361.9l66-58c76-68,186-78,261.9-26c84,60,102,142,102,487.9v319.9h1057.7h1059.7l6-361.9l6-361.9l66-58c76-68,185.9-78,261.9-26c84,60,102,142,102,487.9v319.9h1057.7h1059.7l6-361.9l6-361.9l66-58c76-68,185.9-78,261.9-26c84,60,102,142,102,487.9v319.9h319.9c345.9,0,427.9,18,487.9,102c52,76,42,186-26,261.9l-58,66l-361.9,6l-361.9,6v1059.7V-1390h319.9c345.9,0,427.9,18,487.9,102c52,76,42,185.9-26,261.9l-58,66l-361.9,6l-361.9,6V111.5v1057.7h319.9c345.9,0,427.9,18,487.9,102c52,76,42,185.9-26,261.9l-58,66l-361.9,6l-361.9,6v1059.7v1057.7h319.9c345.9,0,427.9,18,487.9,102c52,76,42,185.9-26,261.9l-58,66l-361.9,6l-361.9,6v329.9c0,253.9-6,343.9-30,387.9c-68,134-221.9,162-333.9,62l-66-58l-6-361.9l-6-361.9H7557.7H6500v319.9c0,345.9-18,427.9-102,487.9c-76,52-186,42-261.9-26l-66-58l-6-361.9l-6-361.9H5000.5H3944.8l-8,361.9l-6,361.9l-66,58c-90,80-197.9,80-287.9,0l-66-58l-6-361.9l-6-361.9H2439.3H1381.6v319.9c0,345.9-18,427.9-102,487.9C1203.7,5028,1093.7,5018,1017.7,4950z M3500.9,2668.7V1609.1H2441.3H1381.6v1059.7v1059.7h1059.7h1059.7V2668.7z M6060.2,2668.7V1609.1H5000.5H3940.8v1059.7v1059.7h1059.7h1059.7V2668.7z M8619.4,2668.7V1609.1H7559.7H6500v1059.7v1059.7h1059.7h1059.7V2668.7z M3500.9,109.5V-950.2H2441.3H1381.6V109.5v1059.7h1059.7h1059.7V109.5z M6060.2,109.5V-950.2H5000.5H3940.8V109.5v1059.7h1059.7h1059.7V109.5z M8619.4,109.5V-950.2H7559.7H6500V109.5v1059.7h1059.7h1059.7V109.5z M3500.9-2449.7v-1059.7H2441.3H1381.6v1059.7V-1390h1059.7h1059.7V-2449.7z M6060.2-2449.7v-1059.7H5000.5H3940.8v1059.7V-1390h1059.7h1059.7V-2449.7z M8619.4-2449.7v-1059.7H7559.7H6500v1059.7V-1390h1059.7h1059.7V-2449.7z"/></g></g>
</svg>