<?xml version="1.0" encoding="UTF-8" standalone="no"?>
<svg
   xmlns:dc="http://purl.org/dc/elements/1.1/"
   xmlns:cc="http://creativecommons.org/ns#"
   xmlns:rdf="http://www.w3.org/1999/02/22-rdf-syntax-ns#"
   xmlns:svg="http://www.w3.org/2000/svg"
   xmlns="http://www.w3.org/2000/svg"
   xmlns:sodipodi="http://sodipodi.sourceforge.net/DTD/sodipodi-0.dtd"
   xmlns:inkscape="http://www.inkscape.org/namespaces/inkscape"
   version="1.1"
   id="Capa_1"
   x="0px"
   y="0px"
   width="595.021px"
   height="595.021px"
   viewBox="0 0 595.021 595.021"
   style="enable-background:new 0 0 595.021 595.021;"
   xml:space="preserve"
   sodipodi:docname="connectfour-image-yellow1.svg"
   inkscape:version="1.0.1 (3bc2e813f5, 2020-09-07)"><metadata
   id="metadata47"><rdf:RDF><cc:Work
       rdf:about=""><dc:format>image/svg+xml</dc:format><dc:type
         rdf:resource="http://purl.org/dc/dcmitype/StillImage" /><dc:title></dc:title></cc:Work></rdf:RDF></metadata><defs
   id="defs45" /><sodipodi:namedview
   pagecolor="#ffffff"
   bordercolor="#666666"
   borderopacity="1"
   objecttolerance="10"
   gridtolerance="10"
   guidetolerance="10"
   inkscape:pageopacity="0"
   inkscape:pageshadow="2"
   inkscape:window-width="1920"
   inkscape:window-height="1057"
   id="namedview43"
   showgrid="false"
   inkscape:zoom="0.84702893"
   inkscape:cx="233.94037"
   inkscape:cy="436.38841"
   inkscape:window-x="-8"
   inkscape:window-y="338"
   inkscape:window-maximized="1"
   inkscape:current-layer="Capa_1" />
<g
   id="g10">
	<g
   id="g8">
		<g
   id="g6">
			<path
   d="M507.529,87.493c-27.264-27.264-59.022-48.672-94.396-63.635C376.489,8.358,337.588,0.5,297.511,0.5     c-40.078,0-78.979,7.858-115.624,23.358c-35.373,14.961-67.132,36.371-94.395,63.635c-27.264,27.263-48.673,59.022-63.635,94.395     C8.358,218.532,0.5,257.434,0.5,297.511c0,40.077,7.858,78.979,23.358,115.623c14.961,35.373,36.371,67.132,63.635,94.396     c27.263,27.263,59.022,48.672,94.395,63.634c36.645,15.5,75.546,23.358,115.624,23.358c40.077,0,78.979-7.858,115.623-23.358     c35.373-14.961,67.133-36.371,94.396-63.634c27.263-27.264,48.673-59.022,63.634-94.396     c15.499-36.645,23.358-75.546,23.358-115.623c0-40.077-7.858-78.979-23.358-115.624     C556.202,146.515,534.792,114.756,507.529,87.493z M297.511,551.682c-140.375,0-254.171-113.797-254.171-254.171     c0-140.375,113.796-254.171,254.171-254.171c140.374,0,254.171,113.796,254.171,254.171     C551.682,437.885,437.885,551.682,297.511,551.682z"
   id="path2" />
			<path
   d="M297.511,595.021c-40.146,0-79.112-7.872-115.818-23.397c-35.433-14.988-67.245-36.434-94.553-63.741     c-27.31-27.31-48.755-59.122-63.742-94.555C7.872,376.623,0,337.656,0,297.511c0-40.145,7.872-79.112,23.397-115.818     c14.987-35.432,36.433-67.245,63.742-94.553c27.308-27.309,59.12-48.755,94.553-63.742C218.399,7.872,257.366,0,297.511,0     c40.146,0,79.112,7.872,115.817,23.397c35.435,14.988,67.247,36.434,94.555,63.742c27.31,27.31,48.755,59.123,63.741,94.553     c15.525,36.706,23.397,75.673,23.397,115.818c0,40.144-7.872,79.11-23.397,115.817c-14.985,35.432-36.432,67.244-63.741,94.555     c-27.31,27.31-59.122,48.755-94.555,63.741C376.623,587.149,337.656,595.021,297.511,595.021z M297.511,1     C257.5,1,218.665,8.845,182.082,24.318c-35.314,14.937-67.02,36.311-94.236,63.528c-27.218,27.217-48.591,58.923-63.528,94.236     C8.845,218.665,1,257.5,1,297.511s7.845,78.847,23.318,115.429c14.936,35.312,36.31,67.019,63.528,94.236     c27.217,27.216,58.922,48.59,94.236,63.526c36.582,15.474,75.417,23.319,115.429,23.319c40.011,0,78.847-7.846,115.429-23.319     c35.312-14.936,67.019-36.309,94.236-63.526c27.219-27.22,48.592-58.925,63.526-94.236     c15.474-36.584,23.319-75.42,23.319-115.429c0-40.011-7.846-78.847-23.319-115.429c-14.935-35.312-36.309-67.017-63.526-94.236     c-27.217-27.216-58.922-48.59-94.236-63.528C376.357,8.845,337.521,1,297.511,1z M297.511,552.182     c-68.025,0-131.979-26.49-180.08-74.592C69.33,429.489,42.84,365.535,42.84,297.511c0-68.025,26.49-131.979,74.591-180.08     S229.486,42.84,297.511,42.84c68.024,0,131.979,26.49,180.079,74.591c48.102,48.101,74.592,112.055,74.592,180.08     c0,68.024-26.49,131.979-74.592,180.079C429.489,525.691,365.535,552.182,297.511,552.182z M297.511,43.84     c-67.758,0-131.46,26.386-179.373,74.298S43.84,229.753,43.84,297.511s26.386,131.46,74.298,179.372     c47.913,47.912,111.615,74.299,179.373,74.299s131.46-26.387,179.372-74.299s74.299-111.614,74.299-179.372     s-26.387-131.46-74.299-179.373C428.971,70.226,365.269,43.84,297.511,43.84z"
   id="path4" />
		</g>
	</g>
</g>
<g
   id="g12">
</g>
<g
   id="g14">
</g>
<g
   id="g16">
</g>
<g
   id="g18">
</g>
<g
   id="g20">
</g>
<g
   id="g22">
</g>
<g
   id="g24">
</g>
<g
   id="g26">
</g>
<g
   id="g28">
</g>
<g
   id="g30">
</g>
<g
   id="g32">
</g>
<g
   id="g34">
</g>
<g
   id="g36">
</g>
<g
   id="g38">
</g>
<g
   id="g40">
</g>
<path
   style="fill:#ff0000;stroke:#eaecf0;stroke-width:1.18543;stroke-linecap:square;stroke-miterlimit:10;stroke-dashoffset:1.88977"
   d="M 275.52266,549.86363 C 168.94401,540.67758 78.509469,463.98208 52.209026,360.47636 c -5.488188,-21.59882 -7.711015,-39.79514 -7.699384,-63.02802 0.0117,-23.37003 2.223866,-41.47906 7.699384,-63.02803 C 74.272138,147.59066 144.49342,76.109392 230.10897,53.328299 c 24.33006,-6.473887 40.90426,-8.657634 66.2839,-8.733284 42.36875,-0.126292 75.95837,7.623004 113.53393,26.192853 66.8797,33.051962 115.78425,93.976762 133.50789,166.322772 5.49781,22.44144 6.67073,33.05075 6.67073,60.3377 0,20.99644 -0.25006,25.81594 -1.88418,36.31416 -8.74623,56.18921 -32.52947,103.41102 -71.90543,142.76874 -42.96583,42.94593 -97.44462,68.22276 -158.21792,73.40926 -11.6105,0.99087 -30.58462,0.95661 -42.57523,-0.0769 z"
   id="path872" /><path
   style="fill:#ffcc00;stroke:#eaecf0;stroke-width:1.67645;stroke-linecap:square;stroke-miterlimit:10;stroke-dashoffset:1.88977"
   d="M 277.62246,548.91421 C 248.49099,546.72629 217.46695,538.30104 189.66797,525.02828 112.87052,488.36094 60.206563,417.03297 47.994736,333.14631 45.482205,315.887 45.498262,279.76609 48.02648,261.73966 61.93357,162.58083 136.36411,79.040979 233.28531,53.807587 c 46.41735,-12.084734 99.54235,-10.511874 143.28427,4.242185 17.12022,5.774616 45.39811,19.71869 60.44525,29.806072 58.67169,39.332656 95.99347,96.807486 109.41135,168.491486 2.93329,15.67088 2.94145,66.44192 0.0132,82.05151 -8.47189,45.16069 -25.08724,82.40284 -51.6182,115.69852 -9.12615,11.4531 -32.55568,34.67391 -43.06061,42.67701 -50.41038,38.40477 -111.89586,56.81455 -174.13809,52.13984 z"
   id="path880" /></svg>
